<?xml version="1.0" encoding="UTF-8"?>
<svg viewBox="0 0 1000 650" xmlns="http://www.w3.org/2000/svg"><defs><linearGradient id="dkBody" x1="0" y1="0" x2="0" y2="1"><stop offset="0" stop-color="#2d2542"/><stop offset=".5" stop-color="#1b142b"/><stop offset="1" stop-color="#110c1c"/></linearGradient><linearGradient id="dkRing" x1="0" y1="0" x2="1" y2="1"><stop offset="0" stop-color="#9c94b1"/><stop offset=".2" stop-color="#3c3450"/><stop offset=".47" stop-color="#c6bed9"/><stop offset=".6" stop-color="#4c4460"/><stop offset=".84" stop-color="#a59dba"/><stop offset="1" stop-color="#2d2542"/></linearGradient><radialGradient id="dkPlatter" cx=".5" cy=".5" r=".5"><stop offset="0" stop-color="#28223a"/><stop offset=".72" stop-color="#130e1f"/><stop offset="1" stop-color="#0b0815"/></radialGradient><radialGradient id="dkLabel" cx=".38" cy=".32" r=".75"><stop offset="0" stop-color="#ffb3e0"/><stop offset=".6" stop-color="#c02a80"/><stop offset="1" stop-color="#5e1240"/></radialGradient><radialGradient id="dkGlowBlue" cx=".5" cy=".5" r=".5"><stop offset="0" stop-color="#7b3fe4" stop-opacity=".95"/><stop offset="1" stop-color="#7b3fe4" stop-opacity="0"/></radialGradient><radialGradient id="dkGlowGold" cx=".5" cy=".5" r=".5"><stop offset="0" stop-color="#e5399b" stop-opacity=".95"/><stop offset="1" stop-color="#e5399b" stop-opacity="0"/></radialGradient><linearGradient id="dkSheen" x1="0" y1="0" x2="1" y2="1"><stop offset="0" stop-color="#fff" stop-opacity=".11"/><stop offset=".45" stop-color="#fff" stop-opacity="0"/><stop offset="1" stop-color="#fff" stop-opacity=".05"/></linearGradient><linearGradient id="dkLightL" x1="0" y1="0" x2="1" y2="0"><stop offset="0" stop-color="#7b3fe4" stop-opacity=".3"/><stop offset="1" stop-color="#7b3fe4" stop-opacity="0"/></linearGradient><linearGradient id="dkLightR" x1="1" y1="0" x2="0" y2="0"><stop offset="0" stop-color="#e5399b" stop-opacity=".24"/><stop offset="1" stop-color="#e5399b" stop-opacity="0"/></linearGradient><linearGradient id="dkFader" x1="0" y1="0" x2="0" y2="1"><stop offset="0" stop-color="#655d7a"/><stop offset=".5" stop-color="#2d2542"/><stop offset="1" stop-color="#1a1329"/></linearGradient><linearGradient id="dkKnob" x1="0" y1="0" x2="0" y2="1"><stop offset="0" stop-color="#423a58"/><stop offset="1" stop-color="#171126"/></linearGradient><linearGradient id="dkPadSheen" x1="0" y1="0" x2="0" y2="1"><stop offset="0" stop-color="#fff" stop-opacity=".35"/><stop offset=".5" stop-color="#fff" stop-opacity="0"/></linearGradient><radialGradient id="dkShadow" cx=".5" cy=".5" r=".5"><stop offset="0" stop-color="#000" stop-opacity=".75"/><stop offset="1" stop-color="#000" stop-opacity="0"/></radialGradient><clipPath id="dkClip"><rect x="40" y="60" width="920" height="520" rx="30"/></clipPath></defs><ellipse cx="500" cy="605" rx="480" ry="42" fill="url(#dkShadow)"/><rect x="40" y="72" width="920" height="520" rx="30" fill="#0a0714"/><rect x="40" y="60" width="920" height="520" rx="30" fill="url(#dkBody)" stroke="#3f3754" stroke-width="1"/><g clip-path="url(#dkClip)"><rect x="40" y="60" width="320" height="520" fill="url(#dkLightL)"/><rect x="640" y="60" width="320" height="520" fill="url(#dkLightR)"/><rect x="40" y="60" width="920" height="520" fill="url(#dkSheen)"/></g><rect x="49" y="69" width="902" height="502" rx="24" fill="none" stroke="#fff" stroke-opacity=".06"/><circle cx="58" cy="78" r="3.2" fill="#0c0817" stroke="#473f5c" stroke-width=".8"/><circle cx="942" cy="78" r="3.2" fill="#0c0817" stroke="#473f5c" stroke-width=".8"/><circle cx="58" cy="562" r="3.2" fill="#0c0817" stroke="#473f5c" stroke-width=".8"/><circle cx="942" cy="562" r="3.2" fill="#0c0817" stroke="#473f5c" stroke-width=".8"/><text x="500" y="82" text-anchor="middle" font-size="11" letter-spacing=".4em" fill="#716986" font-family="Syne, sans-serif" font-weight="800">DJ KURD</text><rect x="110" y="86" width="280" height="70" rx="8" fill="#09060f" stroke="#2d2542"/><rect x="124" y="105.7" width="2.4" height="20.7" rx="1" fill="#7b3fe4" opacity="0.61"/><rect x="128" y="106.7" width="2.4" height="18.7" rx="1" fill="#7b3fe4" opacity="0.54"/><rect x="132" y="109.9" width="2.4" height="12.2" rx="1" fill="#7b3fe4" opacity="0.55"/><rect x="136" y="109.0" width="2.4" height="14.1" rx="1" fill="#7b3fe4" opacity="0.44"/><rect x="140" y="110.0" width="2.4" height="12.0" rx="1" fill="#7b3fe4" opacity="0.57"/><rect x="144" y="114.2" width="2.4" height="3.7" rx="1" fill="#7b3fe4" opacity="0.85"/><rect x="148" y="102.7" width="2.4" height="26.6" rx="1" fill="#7b3fe4" opacity="0.48"/><rect x="152" y="105.7" width="2.4" height="20.6" rx="1" fill="#7b3fe4" opacity="0.69"/><rect x="156" y="108.1" width="2.4" height="15.9" rx="1" fill="#7b3fe4" opacity="0.72"/><rect x="160" y="103.9" width="2.4" height="24.1" rx="1" fill="#7b3fe4" opacity="0.55"/><rect x="164" y="108.2" width="2.4" height="15.5" rx="1" fill="#7b3fe4" opacity="0.68"/><rect x="168" y="97.2" width="2.4" height="37.7" rx="1" fill="#7b3fe4" opacity="0.91"/><rect x="172" y="100.4" width="2.4" height="31.2" rx="1" fill="#7b3fe4" opacity="0.65"/><rect x="176" y="97.8" width="2.4" height="36.5" rx="1" fill="#7b3fe4" opacity="0.94"/><rect x="180" y="98.1" width="2.4" height="35.8" rx="1" fill="#7b3fe4" opacity="0.51"/><rect x="184" y="106.6" width="2.4" height="18.7" rx="1" fill="#7b3fe4" opacity="0.53"/><rect x="188" y="106.1" width="2.4" height="19.9" rx="1" fill="#7b3fe4" opacity="0.87"/><rect x="192" y="105.6" width="2.4" height="20.9" rx="1" fill="#7b3fe4" opacity="0.58"/><rect x="196" y="111.4" width="2.4" height="9.2" rx="1" fill="#7b3fe4" opacity="0.48"/><rect x="200" y="101.2" width="2.4" height="29.6" rx="1" fill="#7b3fe4" opacity="0.92"/><rect x="204" y="101.0" width="2.4" height="30.0" rx="1" fill="#7b3fe4" opacity="0.40"/><rect x="208" y="110.6" width="2.4" height="10.7" rx="1" fill="#7b3fe4" opacity="0.48"/><rect x="212" y="108.4" width="2.4" height="15.2" rx="1" fill="#7b3fe4" opacity="0.51"/><rect x="216" y="108.6" width="2.4" height="14.8" rx="1" fill="#7b3fe4" opacity="0.65"/><rect x="220" y="107.4" width="2.4" height="17.2" rx="1" fill="#7b3fe4" opacity="0.68"/><rect x="224" y="109.3" width="2.4" height="13.4" rx="1" fill="#7b3fe4" opacity="0.42"/><rect x="228" y="105.0" width="2.4" height="21.9" rx="1" fill="#7b3fe4" opacity="0.63"/><rect x="232" y="106.1" width="2.4" height="19.7" rx="1" fill="#7b3fe4" opacity="0.58"/><rect x="236" y="114.0" width="2.4" height="4.0" rx="1" fill="#7b3fe4" opacity="0.95"/><rect x="240" y="110.0" width="2.4" height="12.0" rx="1" fill="#7b3fe4" opacity="0.49"/><rect x="244" y="105.0" width="2.4" height="21.9" rx="1" fill="#7b3fe4" opacity="0.91"/><rect x="248" y="113.6" width="2.4" height="4.7" rx="1" fill="#7b3fe4" opacity="0.92"/><rect x="252" y="113.3" width="2.4" height="5.4" rx="1" fill="#7b3fe4" opacity="0.47"/><rect x="256" y="112.9" width="2.4" height="6.2" rx="1" fill="#7b3fe4" opacity="0.88"/><rect x="260" y="106.8" width="2.4" height="18.3" rx="1" fill="#7b3fe4" opacity="0.71"/><rect x="264" y="104.9" width="2.4" height="22.1" rx="1" fill="#7b3fe4" opacity="0.56"/><rect x="268" y="113.5" width="2.4" height="5.0" rx="1" fill="#7b3fe4" opacity="0.44"/><rect x="272" y="110.6" width="2.4" height="10.7" rx="1" fill="#7b3fe4" opacity="0.72"/><rect x="276" y="113.0" width="2.4" height="6.0" rx="1" fill="#7b3fe4" opacity="0.42"/><rect x="280" y="110.7" width="2.4" height="10.6" rx="1" fill="#7b3fe4" opacity="0.41"/><rect x="284" y="113.1" width="2.4" height="5.8" rx="1" fill="#7b3fe4" opacity="0.48"/><rect x="288" y="111.9" width="2.4" height="8.2" rx="1" fill="#7b3fe4" opacity="0.58"/><rect x="292" y="98.7" width="2.4" height="34.6" rx="1" fill="#7b3fe4" opacity="0.77"/><rect x="296" y="113.9" width="2.4" height="4.2" rx="1" fill="#7b3fe4" opacity="0.44"/><rect x="300" y="108.1" width="2.4" height="15.9" rx="1" fill="#7b3fe4" opacity="0.65"/><rect x="304" y="106.2" width="2.4" height="19.6" rx="1" fill="#7b3fe4" opacity="0.70"/><rect x="308" y="102.0" width="2.4" height="27.9" rx="1" fill="#7b3fe4" opacity="0.75"/><rect x="312" y="110.2" width="2.4" height="11.5" rx="1" fill="#7b3fe4" opacity="0.55"/><rect x="316" y="99.2" width="2.4" height="33.7" rx="1" fill="#7b3fe4" opacity="0.69"/><rect x="320" y="101.2" width="2.4" height="29.6" rx="1" fill="#7b3fe4" opacity="0.91"/><rect x="324" y="103.6" width="2.4" height="24.9" rx="1" fill="#7b3fe4" opacity="0.74"/><rect x="328" y="105.3" width="2.4" height="21.5" rx="1" fill="#7b3fe4" opacity="0.56"/><rect x="332" y="112.3" width="2.4" height="7.5" rx="1" fill="#7b3fe4" opacity="0.61"/><rect x="336" y="112.7" width="2.4" height="6.6" rx="1" fill="#7b3fe4" opacity="0.50"/><rect x="340" y="113.7" width="2.4" height="4.7" rx="1" fill="#7b3fe4" opacity="0.50"/><rect x="344" y="114.7" width="2.4" height="2.6" rx="1" fill="#7b3fe4" opacity="0.47"/><rect x="348" y="107.6" width="2.4" height="16.8" rx="1" fill="#7b3fe4" opacity="0.43"/><rect x="352" y="107.9" width="2.4" height="16.3" rx="1" fill="#7b3fe4" opacity="0.79"/><rect x="356" y="113.2" width="2.4" height="5.6" rx="1" fill="#7b3fe4" opacity="0.66"/><rect x="360" y="108.5" width="2.4" height="15.0" rx="1" fill="#7b3fe4" opacity="0.92"/><rect x="364" y="108.0" width="2.4" height="15.9" rx="1" fill="#7b3fe4" opacity="0.47"/><rect x="368" y="114.0" width="2.4" height="3.9" rx="1" fill="#7b3fe4" opacity="0.50"/><rect x="372" y="112.9" width="2.4" height="6.2" rx="1" fill="#7b3fe4" opacity="0.85"/><rect x="376" y="103.2" width="2.4" height="25.7" rx="1" fill="#7b3fe4" opacity="0.46"/><rect x="250" y="94" width="1.5" height="44" fill="#ff9ad5"/><text x="122" y="149" font-size="8.5" fill="#7f7794" font-family="Manrope, sans-serif" font-weight="700" letter-spacing=".12em">A  DELILO  HALAY</text><text x="378" y="149" text-anchor="end" font-size="8.5" fill="#c9c1dc" font-family="Manrope, sans-serif" font-weight="700" letter-spacing=".12em">124.00 BPM</text><rect x="610" y="86" width="280" height="70" rx="8" fill="#09060f" stroke="#2d2542"/><rect x="624" y="110.5" width="2.4" height="11.0" rx="1" fill="#7b3fe4" opacity="0.57"/><rect x="628" y="105.0" width="2.4" height="22.0" rx="1" fill="#7b3fe4" opacity="0.60"/><rect x="632" y="112.9" width="2.4" height="6.3" rx="1" fill="#7b3fe4" opacity="0.94"/><rect x="636" y="107.5" width="2.4" height="17.1" rx="1" fill="#7b3fe4" opacity="0.87"/><rect x="640" y="113.0" width="2.4" height="5.9" rx="1" fill="#7b3fe4" opacity="0.86"/><rect x="644" y="104.8" width="2.4" height="22.4" rx="1" fill="#7b3fe4" opacity="0.55"/><rect x="648" y="107.0" width="2.4" height="18.0" rx="1" fill="#7b3fe4" opacity="0.86"/><rect x="652" y="112.5" width="2.4" height="7.0" rx="1" fill="#7b3fe4" opacity="0.56"/><rect x="656" y="113.4" width="2.4" height="5.1" rx="1" fill="#7b3fe4" opacity="0.92"/><rect x="660" y="102.4" width="2.4" height="27.2" rx="1" fill="#7b3fe4" opacity="0.53"/><rect x="664" y="113.7" width="2.4" height="4.6" rx="1" fill="#7b3fe4" opacity="0.81"/><rect x="668" y="101.1" width="2.4" height="29.8" rx="1" fill="#7b3fe4" opacity="0.80"/><rect x="672" y="112.5" width="2.4" height="6.9" rx="1" fill="#7b3fe4" opacity="0.90"/><rect x="676" y="110.8" width="2.4" height="10.4" rx="1" fill="#7b3fe4" opacity="0.64"/><rect x="680" y="102.8" width="2.4" height="26.3" rx="1" fill="#7b3fe4" opacity="0.43"/><rect x="684" y="98.1" width="2.4" height="35.9" rx="1" fill="#7b3fe4" opacity="0.50"/><rect x="688" y="111.5" width="2.4" height="8.9" rx="1" fill="#7b3fe4" opacity="0.87"/><rect x="692" y="106.6" width="2.4" height="18.9" rx="1" fill="#7b3fe4" opacity="0.67"/><rect x="696" y="112.5" width="2.4" height="7.0" rx="1" fill="#7b3fe4" opacity="0.92"/><rect x="700" y="107.9" width="2.4" height="16.2" rx="1" fill="#7b3fe4" opacity="0.94"/><rect x="704" y="108.9" width="2.4" height="14.1" rx="1" fill="#7b3fe4" opacity="0.77"/><rect x="708" y="102.7" width="2.4" height="26.6" rx="1" fill="#7b3fe4" opacity="0.71"/><rect x="712" y="110.3" width="2.4" height="11.5" rx="1" fill="#7b3fe4" opacity="0.56"/><rect x="716" y="111.7" width="2.4" height="8.7" rx="1" fill="#7b3fe4" opacity="0.67"/><rect x="720" y="113.3" width="2.4" height="5.5" rx="1" fill="#7b3fe4" opacity="0.44"/><rect x="724" y="113.6" width="2.4" height="4.9" rx="1" fill="#7b3fe4" opacity="0.82"/><rect x="728" y="114.8" width="2.4" height="2.4" rx="1" fill="#7b3fe4" opacity="0.90"/><rect x="732" y="108.4" width="2.4" height="15.3" rx="1" fill="#7b3fe4" opacity="0.63"/><rect x="736" y="114.6" width="2.4" height="2.8" rx="1" fill="#7b3fe4" opacity="0.80"/><rect x="740" y="114.5" width="2.4" height="2.9" rx="1" fill="#7b3fe4" opacity="0.43"/><rect x="744" y="113.4" width="2.4" height="5.1" rx="1" fill="#7b3fe4" opacity="0.65"/><rect x="748" y="107.8" width="2.4" height="16.4" rx="1" fill="#7b3fe4" opacity="0.82"/><rect x="752" y="111.1" width="2.4" height="9.7" rx="1" fill="#7b3fe4" opacity="0.42"/><rect x="756" y="110.9" width="2.4" height="10.2" rx="1" fill="#7b3fe4" opacity="0.83"/><rect x="760" y="109.6" width="2.4" height="12.8" rx="1" fill="#7b3fe4" opacity="0.92"/><rect x="764" y="110.9" width="2.4" height="10.2" rx="1" fill="#7b3fe4" opacity="0.83"/><rect x="768" y="103.0" width="2.4" height="26.0" rx="1" fill="#7b3fe4" opacity="0.41"/><rect x="772" y="108.8" width="2.4" height="14.3" rx="1" fill="#7b3fe4" opacity="0.66"/><rect x="776" y="99.3" width="2.4" height="33.5" rx="1" fill="#7b3fe4" opacity="0.64"/><rect x="780" y="107.9" width="2.4" height="16.1" rx="1" fill="#7b3fe4" opacity="0.74"/><rect x="784" y="101.3" width="2.4" height="29.4" rx="1" fill="#7b3fe4" opacity="0.76"/><rect x="788" y="97.7" width="2.4" height="36.5" rx="1" fill="#7b3fe4" opacity="0.69"/><rect x="792" y="106.7" width="2.4" height="18.6" rx="1" fill="#7b3fe4" opacity="0.70"/><rect x="796" y="105.2" width="2.4" height="21.6" rx="1" fill="#7b3fe4" opacity="0.65"/><rect x="800" y="112.4" width="2.4" height="7.2" rx="1" fill="#7b3fe4" opacity="0.66"/><rect x="804" y="97.5" width="2.4" height="36.9" rx="1" fill="#7b3fe4" opacity="0.66"/><rect x="808" y="112.2" width="2.4" height="7.7" rx="1" fill="#7b3fe4" opacity="0.45"/><rect x="812" y="101.8" width="2.4" height="28.5" rx="1" fill="#7b3fe4" opacity="0.79"/><rect x="816" y="112.8" width="2.4" height="6.3" rx="1" fill="#7b3fe4" opacity="0.61"/><rect x="820" y="103.5" width="2.4" height="25.0" rx="1" fill="#7b3fe4" opacity="0.46"/><rect x="824" y="102.5" width="2.4" height="27.1" rx="1" fill="#7b3fe4" opacity="0.51"/><rect x="828" y="113.0" width="2.4" height="5.9" rx="1" fill="#7b3fe4" opacity="0.68"/><rect x="832" y="107.6" width="2.4" height="16.9" rx="1" fill="#7b3fe4" opacity="0.65"/><rect x="836" y="106.1" width="2.4" height="19.8" rx="1" fill="#7b3fe4" opacity="0.85"/><rect x="840" y="111.0" width="2.4" height="10.1" rx="1" fill="#7b3fe4" opacity="0.45"/><rect x="844" y="111.0" width="2.4" height="10.1" rx="1" fill="#7b3fe4" opacity="0.65"/><rect x="848" y="108.1" width="2.4" height="15.9" rx="1" fill="#7b3fe4" opacity="0.63"/><rect x="852" y="106.6" width="2.4" height="18.7" rx="1" fill="#7b3fe4" opacity="0.61"/><rect x="856" y="107.8" width="2.4" height="16.5" rx="1" fill="#7b3fe4" opacity="0.49"/><rect x="860" y="107.6" width="2.4" height="16.8" rx="1" fill="#7b3fe4" opacity="0.77"/><rect x="864" y="109.1" width="2.4" height="13.8" rx="1" fill="#7b3fe4" opacity="0.92"/><rect x="868" y="106.8" width="2.4" height="18.4" rx="1" fill="#7b3fe4" opacity="0.55"/><rect x="872" y="113.5" width="2.4" height="4.9" rx="1" fill="#7b3fe4" opacity="0.85"/><rect x="876" y="110.3" width="2.4" height="11.4" rx="1" fill="#7b3fe4" opacity="0.59"/><rect x="750" y="94" width="1.5" height="44" fill="#ff9ad5"/><text x="622" y="149" font-size="8.5" fill="#7f7794" font-family="Manrope, sans-serif" font-weight="700" letter-spacing=".12em">B  SHEXANI  DABKE</text><text x="878" y="149" text-anchor="end" font-size="8.5" fill="#c9c1dc" font-family="Manrope, sans-serif" font-weight="700" letter-spacing=".12em">124.00 BPM</text><g transform="translate(250 352)"><circle r="154" fill="#0b0815"/><circle r="150" fill="url(#dkRing)"/><circle r="123" fill="#0b0815"/><circle r="116" fill="url(#dkPlatter)"/><g fill="none" stroke="#fff" stroke-opacity=".045"><circle r="108"/><circle r="100"/><circle r="92"/><circle r="84"/><circle r="76"/><circle r="68"/><circle r="60"/></g><circle r="46" fill="url(#dkLabel)"/><circle r="46" fill="none" stroke="#000" stroke-opacity=".4"/><circle r="4.5" fill="#0c0817"/><text y="9" text-anchor="middle" font-size="22" font-weight="800" fill="#1b0a14" font-family="Syne, sans-serif" opacity=".85">DK</text><g transform="rotate(-30)"><rect x="-2.2" y="-148" width="4.4" height="18" rx="2" fill="#7b3fe4"/><rect x="-8" y="-152" width="16" height="26" rx="8" fill="url(#dkGlowBlue)" opacity=".6"/></g><path d="M-106 -106 A150 150 0 0 1 106 -106" fill="none" stroke="#fff" stroke-opacity=".28" stroke-width="2.2"/><path d="M-106 106 A150 150 0 0 0 106 106" fill="none" stroke="#000" stroke-opacity=".5" stroke-width="2.2"/></g><g transform="translate(750 352)"><circle r="154" fill="#0b0815"/><circle r="150" fill="url(#dkRing)"/><circle r="123" fill="#0b0815"/><circle r="116" fill="url(#dkPlatter)"/><g fill="none" stroke="#fff" stroke-opacity=".045"><circle r="108"/><circle r="100"/><circle r="92"/><circle r="84"/><circle r="76"/><circle r="68"/><circle r="60"/></g><circle r="46" fill="url(#dkLabel)"/><circle r="46" fill="none" stroke="#000" stroke-opacity=".4"/><circle r="4.5" fill="#0c0817"/><text y="9" text-anchor="middle" font-size="22" font-weight="800" fill="#1b0a14" font-family="Syne, sans-serif" opacity=".85">DK</text><g transform="rotate(40)"><rect x="-2.2" y="-148" width="4.4" height="18" rx="2" fill="#7b3fe4"/><rect x="-8" y="-152" width="16" height="26" rx="8" fill="url(#dkGlowBlue)" opacity=".6"/></g><path d="M-106 -106 A150 150 0 0 1 106 -106" fill="none" stroke="#fff" stroke-opacity=".28" stroke-width="2.2"/><path d="M-106 106 A150 150 0 0 0 106 106" fill="none" stroke="#000" stroke-opacity=".5" stroke-width="2.2"/></g><circle cx="78" cy="262" r="9" fill="#1d162e" stroke="#000" stroke-opacity=".5"/><circle cx="78" cy="306" r="16" fill="url(#dkGlowGold)" opacity=".7"/><circle cx="78" cy="306" r="9" fill="#e5399b"/><circle cx="78" cy="350" r="9" fill="#1d162e" stroke="#000" stroke-opacity=".5"/><circle cx="78" cy="394" r="9" fill="#1d162e" stroke="#000" stroke-opacity=".5"/><circle cx="922" cy="262" r="9" fill="#1d162e" stroke="#000" stroke-opacity=".5"/><circle cx="922" cy="306" r="9" fill="#1d162e" stroke="#000" stroke-opacity=".5"/><circle cx="922" cy="350" r="16" fill="url(#dkGlowGold)" opacity=".7"/><circle cx="922" cy="350" r="9" fill="#e5399b"/><circle cx="922" cy="394" r="9" fill="#1d162e" stroke="#000" stroke-opacity=".5"/><rect x="101" y="508" width="76" height="40" rx="12" fill="url(#dkGlowBlue)" opacity=".7"/><rect x="109" y="516" width="60" height="24" rx="5" fill="#7b3fe4"/><rect x="109" y="516" width="60" height="24" rx="5" fill="url(#dkPadSheen)"/><rect x="175" y="508" width="76" height="40" rx="12" fill="url(#dkGlowBlue)" opacity=".7"/><rect x="183" y="516" width="60" height="24" rx="5" fill="#7b3fe4"/><rect x="183" y="516" width="60" height="24" rx="5" fill="url(#dkPadSheen)"/><rect x="257" y="516" width="60" height="24" rx="5" fill="#1d162e" stroke="#000" stroke-opacity=".55"/><rect x="331" y="516" width="60" height="24" rx="5" fill="#1d162e" stroke="#000" stroke-opacity=".55"/><rect x="109" y="546" width="60" height="24" rx="5" fill="#1d162e" stroke="#000" stroke-opacity=".55"/><rect x="175" y="538" width="76" height="40" rx="12" fill="url(#dkGlowBlue)" opacity=".7"/><rect x="183" y="546" width="60" height="24" rx="5" fill="#7b3fe4"/><rect x="183" y="546" width="60" height="24" rx="5" fill="url(#dkPadSheen)"/><rect x="257" y="546" width="60" height="24" rx="5" fill="#1d162e" stroke="#000" stroke-opacity=".55"/><rect x="331" y="546" width="60" height="24" rx="5" fill="#1d162e" stroke="#000" stroke-opacity=".55"/><rect x="609" y="516" width="60" height="24" rx="5" fill="#1d162e" stroke="#000" stroke-opacity=".55"/><rect x="683" y="516" width="60" height="24" rx="5" fill="#1d162e" stroke="#000" stroke-opacity=".55"/><rect x="749" y="508" width="76" height="40" rx="12" fill="url(#dkGlowBlue)" opacity=".7"/><rect x="757" y="516" width="60" height="24" rx="5" fill="#7b3fe4"/><rect x="757" y="516" width="60" height="24" rx="5" fill="url(#dkPadSheen)"/><rect x="831" y="516" width="60" height="24" rx="5" fill="#1d162e" stroke="#000" stroke-opacity=".55"/><rect x="601" y="538" width="76" height="40" rx="12" fill="url(#dkGlowBlue)" opacity=".7"/><rect x="609" y="546" width="60" height="24" rx="5" fill="#7b3fe4"/><rect x="609" y="546" width="60" height="24" rx="5" fill="url(#dkPadSheen)"/><rect x="683" y="546" width="60" height="24" rx="5" fill="#1d162e" stroke="#000" stroke-opacity=".55"/><rect x="757" y="546" width="60" height="24" rx="5" fill="#1d162e" stroke="#000" stroke-opacity=".55"/><rect x="823" y="538" width="76" height="40" rx="12" fill="url(#dkGlowBlue)" opacity=".7"/><rect x="831" y="546" width="60" height="24" rx="5" fill="#7b3fe4"/><rect x="831" y="546" width="60" height="24" rx="5" fill="url(#dkPadSheen)"/><g transform="translate(462 112)"><circle r="16" fill="#0c0817" opacity=".85"/><circle r="13" fill="url(#dkKnob)" stroke="#4f4764" stroke-width=".8"/><path d="M0 -3.9V-11.0" stroke="#f7f3fb" stroke-width="2" stroke-linecap="round" transform="rotate(-20)"/></g><g transform="translate(462 154)"><circle r="16" fill="#0c0817" opacity=".85"/><circle r="13" fill="url(#dkKnob)" stroke="#4f4764" stroke-width=".8"/><path d="M0 -3.9V-11.0" stroke="#f7f3fb" stroke-width="2" stroke-linecap="round" transform="rotate(15)"/></g><g transform="translate(462 196)"><circle r="16" fill="#0c0817" opacity=".85"/><circle r="13" fill="url(#dkKnob)" stroke="#4f4764" stroke-width=".8"/><path d="M0 -3.9V-11.0" stroke="#f7f3fb" stroke-width="2" stroke-linecap="round" transform="rotate(-45)"/></g><g transform="translate(462 238)"><circle r="16" fill="#0c0817" opacity=".85"/><circle r="13" fill="url(#dkKnob)" stroke="#4f4764" stroke-width=".8"/><circle r="19" fill="none" stroke="#7b3fe4" stroke-opacity=".6" stroke-width="1.4" stroke-dasharray="86.0 119.4" transform="rotate(130)"/><path d="M0 -3.9V-11.0" stroke="#f7f3fb" stroke-width="2" stroke-linecap="round" transform="rotate(30)"/></g><g transform="translate(538 112)"><circle r="16" fill="#0c0817" opacity=".85"/><circle r="13" fill="url(#dkKnob)" stroke="#4f4764" stroke-width=".8"/><path d="M0 -3.9V-11.0" stroke="#f7f3fb" stroke-width="2" stroke-linecap="round" transform="rotate(25)"/></g><g transform="translate(538 154)"><circle r="16" fill="#0c0817" opacity=".85"/><circle r="13" fill="url(#dkKnob)" stroke="#4f4764" stroke-width=".8"/><path d="M0 -3.9V-11.0" stroke="#f7f3fb" stroke-width="2" stroke-linecap="round" transform="rotate(-10)"/></g><g transform="translate(538 196)"><circle r="16" fill="#0c0817" opacity=".85"/><circle r="13" fill="url(#dkKnob)" stroke="#4f4764" stroke-width=".8"/><path d="M0 -3.9V-11.0" stroke="#f7f3fb" stroke-width="2" stroke-linecap="round" transform="rotate(40)"/></g><g transform="translate(538 238)"><circle r="16" fill="#0c0817" opacity=".85"/><circle r="13" fill="url(#dkKnob)" stroke="#4f4764" stroke-width=".8"/><circle r="19" fill="none" stroke="#7b3fe4" stroke-opacity=".6" stroke-width="1.4" stroke-dasharray="86.0 119.4" transform="rotate(130)"/><path d="M0 -3.9V-11.0" stroke="#f7f3fb" stroke-width="2" stroke-linecap="round" transform="rotate(-60)"/></g><rect x="490" y="246" width="8" height="7" rx="1.5" fill="#e5399b" opacity="0.55"/><rect x="490" y="235" width="8" height="7" rx="1.5" fill="#e5399b" opacity="0.59"/><rect x="490" y="224" width="8" height="7" rx="1.5" fill="#e5399b" opacity="0.63"/><rect x="490" y="213" width="8" height="7" rx="1.5" fill="#e5399b" opacity="0.67"/><rect x="490" y="202" width="8" height="7" rx="1.5" fill="#e5399b" opacity="0.71"/><rect x="490" y="191" width="8" height="7" rx="1.5" fill="#e5399b" opacity="0.75"/><rect x="490" y="180" width="8" height="7" rx="1.5" fill="#ff9ad5" opacity="0.79"/><rect x="490" y="169" width="8" height="7" rx="1.5" fill="#ff9ad5" opacity="0.83"/><rect x="490" y="158" width="8" height="7" rx="1.5" fill="#1d162e"/><rect x="490" y="147" width="8" height="7" rx="1.5" fill="#1d162e"/><rect x="490" y="136" width="8" height="7" rx="1.5" fill="#1d162e"/><rect x="490" y="125" width="8" height="7" rx="1.5" fill="#1d162e"/><rect x="502" y="246" width="8" height="7" rx="1.5" fill="#e5399b" opacity="0.55"/><rect x="502" y="235" width="8" height="7" rx="1.5" fill="#e5399b" opacity="0.59"/><rect x="502" y="224" width="8" height="7" rx="1.5" fill="#e5399b" opacity="0.63"/><rect x="502" y="213" width="8" height="7" rx="1.5" fill="#e5399b" opacity="0.67"/><rect x="502" y="202" width="8" height="7" rx="1.5" fill="#e5399b" opacity="0.71"/><rect x="502" y="191" width="8" height="7" rx="1.5" fill="#e5399b" opacity="0.75"/><rect x="502" y="180" width="8" height="7" rx="1.5" fill="#e5399b" opacity="0.79"/><rect x="502" y="169" width="8" height="7" rx="1.5" fill="#e5399b" opacity="0.83"/><rect x="502" y="158" width="8" height="7" rx="1.5" fill="#ff9ad5" opacity="0.87"/><rect x="502" y="147" width="8" height="7" rx="1.5" fill="#ff9ad5" opacity="0.91"/><rect x="502" y="136" width="8" height="7" rx="1.5" fill="#1d162e"/><rect x="502" y="125" width="8" height="7" rx="1.5" fill="#1d162e"/><line x1="450" y1="304" x2="453" y2="304" stroke="#4c4460" stroke-width="1"/><line x1="471" y1="304" x2="474" y2="304" stroke="#4c4460" stroke-width="1"/><line x1="450" y1="320" x2="453" y2="320" stroke="#4c4460" stroke-width="1"/><line x1="471" y1="320" x2="474" y2="320" stroke="#4c4460" stroke-width="1"/><line x1="450" y1="336" x2="453" y2="336" stroke="#4c4460" stroke-width="1"/><line x1="471" y1="336" x2="474" y2="336" stroke="#4c4460" stroke-width="1"/><line x1="450" y1="352" x2="453" y2="352" stroke="#4c4460" stroke-width="1"/><line x1="471" y1="352" x2="474" y2="352" stroke="#4c4460" stroke-width="1"/><line x1="450" y1="368" x2="453" y2="368" stroke="#4c4460" stroke-width="1"/><line x1="471" y1="368" x2="474" y2="368" stroke="#4c4460" stroke-width="1"/><line x1="450" y1="384" x2="453" y2="384" stroke="#4c4460" stroke-width="1"/><line x1="471" y1="384" x2="474" y2="384" stroke="#4c4460" stroke-width="1"/><line x1="450" y1="400" x2="453" y2="400" stroke="#4c4460" stroke-width="1"/><line x1="471" y1="400" x2="474" y2="400" stroke="#4c4460" stroke-width="1"/><line x1="450" y1="416" x2="453" y2="416" stroke="#4c4460" stroke-width="1"/><line x1="471" y1="416" x2="474" y2="416" stroke="#4c4460" stroke-width="1"/><line x1="450" y1="432" x2="453" y2="432" stroke="#4c4460" stroke-width="1"/><line x1="471" y1="432" x2="474" y2="432" stroke="#4c4460" stroke-width="1"/><line x1="450" y1="448" x2="453" y2="448" stroke="#4c4460" stroke-width="1"/><line x1="471" y1="448" x2="474" y2="448" stroke="#4c4460" stroke-width="1"/><line x1="450" y1="464" x2="453" y2="464" stroke="#4c4460" stroke-width="1"/><line x1="471" y1="464" x2="474" y2="464" stroke="#4c4460" stroke-width="1"/><rect x="456" y="296" width="12" height="176" rx="6" fill="#09060f" stroke="#2c2441"/><line x1="462" y1="304" x2="462" y2="464" stroke="#3c3450"/><rect x="445" y="352" width="34" height="18" rx="4" fill="url(#dkFader)" stroke="#000" stroke-opacity=".6"/><line x1="452" y1="361" x2="472" y2="361" stroke="#f7f3fb" stroke-opacity=".75" stroke-width="1.5"/><line x1="526" y1="304" x2="529" y2="304" stroke="#4c4460" stroke-width="1"/><line x1="547" y1="304" x2="550" y2="304" stroke="#4c4460" stroke-width="1"/><line x1="526" y1="320" x2="529" y2="320" stroke="#4c4460" stroke-width="1"/><line x1="547" y1="320" x2="550" y2="320" stroke="#4c4460" stroke-width="1"/><line x1="526" y1="336" x2="529" y2="336" stroke="#4c4460" stroke-width="1"/><line x1="547" y1="336" x2="550" y2="336" stroke="#4c4460" stroke-width="1"/><line x1="526" y1="352" x2="529" y2="352" stroke="#4c4460" stroke-width="1"/><line x1="547" y1="352" x2="550" y2="352" stroke="#4c4460" stroke-width="1"/><line x1="526" y1="368" x2="529" y2="368" stroke="#4c4460" stroke-width="1"/><line x1="547" y1="368" x2="550" y2="368" stroke="#4c4460" stroke-width="1"/><line x1="526" y1="384" x2="529" y2="384" stroke="#4c4460" stroke-width="1"/><line x1="547" y1="384" x2="550" y2="384" stroke="#4c4460" stroke-width="1"/><line x1="526" y1="400" x2="529" y2="400" stroke="#4c4460" stroke-width="1"/><line x1="547" y1="400" x2="550" y2="400" stroke="#4c4460" stroke-width="1"/><line x1="526" y1="416" x2="529" y2="416" stroke="#4c4460" stroke-width="1"/><line x1="547" y1="416" x2="550" y2="416" stroke="#4c4460" stroke-width="1"/><line x1="526" y1="432" x2="529" y2="432" stroke="#4c4460" stroke-width="1"/><line x1="547" y1="432" x2="550" y2="432" stroke="#4c4460" stroke-width="1"/><line x1="526" y1="448" x2="529" y2="448" stroke="#4c4460" stroke-width="1"/><line x1="547" y1="448" x2="550" y2="448" stroke="#4c4460" stroke-width="1"/><line x1="526" y1="464" x2="529" y2="464" stroke="#4c4460" stroke-width="1"/><line x1="547" y1="464" x2="550" y2="464" stroke="#4c4460" stroke-width="1"/><rect x="532" y="296" width="12" height="176" rx="6" fill="#09060f" stroke="#2c2441"/><line x1="538" y1="304" x2="538" y2="464" stroke="#3c3450"/><rect x="521" y="398" width="34" height="18" rx="4" fill="url(#dkFader)" stroke="#000" stroke-opacity=".6"/><line x1="528" y1="407" x2="548" y2="407" stroke="#f7f3fb" stroke-opacity=".75" stroke-width="1.5"/><rect x="440" y="516" width="120" height="12" rx="6" fill="#09060f" stroke="#2c2441"/><line x1="448" y1="522" x2="552" y2="522" stroke="#3c3450"/><rect x="480" y="508" width="18" height="28" rx="4" fill="url(#dkFader)" stroke="#000" stroke-opacity=".6"/><line x1="489" y1="514" x2="489" y2="530" stroke="#f7f3fb" stroke-opacity=".75" stroke-width="1.5"/><line x1="430" y1="100" x2="430" y2="560" stroke="#000" stroke-opacity=".35"/><line x1="570" y1="100" x2="570" y2="560" stroke="#000" stroke-opacity=".35"/></svg>